<?xml version="1.0" encoding="utf-8"?>
<!-- Generator: Adobe Illustrator 21.0.1, SVG Export Plug-In . SVG Version: 6.00 Build 0)  -->
<svg version="1.1" id="Layer_1" xmlns="http://www.w3.org/2000/svg" xmlns:xlink="http://www.w3.org/1999/xlink" x="0px" y="0px"
	 viewBox="0 0 1425.9 417.2" style="enable-background:new 0 0 1425.9 417.2;" xml:space="preserve">
<style type="text/css">
	.st0{fill:#FF7C00;}
	.st1{fill:#FFFFFF;}
</style>
<g id="layer1">
	<path class="st0" d="M1019.1,416.3c-0.6-0.9,0.2-10.7,3-37.1c1.6-15.4,3.6-36.1,5.9-60.5c1.5-15.9,3.4-35.9,6-61.5
		c0.8-8.5,2.2-22.5,3-31c0.8-8.5,2.1-22.4,3-30.7c1.9-19.3,4.1-41.4,5.5-56.3c2.6-27.8,4.1-42.6,4.6-43.9c1.1-3.3,2.4,1.1,3.4,11.9
		c0.6,6.3,1.8,18.5,2.6,27c0.8,8.5,2.1,22.5,2.9,31c1.6,17.6,3.8,41.1,6,64.5c0.9,8.8,2.2,23.2,3,32c0.8,8.8,2.2,24.3,3.1,34.5
		c0.9,10.2,1.9,18.8,2.3,19.2c0.3,0.4,6.7-2.8,14.1-7.1c7.4-4.2,18.2-10.4,24-13.6c5.8-3.2,14.6-8.2,19.5-11c5-2.9,18.5-10.5,30-17
		c27.7-15.6,49.3-27.8,58.5-33c4.1-2.4,19.7-11.1,34.5-19.6c14.9-8.4,30.3-17.1,34.4-19.5l7.3-4.2l-5.3-3.9
		c-3-2.1-11.7-8.3-19.4-13.8c-7.7-5.4-17.4-12.3-21.5-15.2c-4.1-3-13.1-9.4-20-14.3c-6.9-4.9-15.6-11.1-19.5-13.9
		c-3.8-2.8-20.2-14.4-36.2-25.8c-16.1-11.4-42.9-30.5-59.5-42.3s-37-26.3-45.2-32.2c-8.3-5.9-20.6-14.6-27.4-19.4
		c-6.8-4.9-11.8-9.2-11.4-9.6c0.5-0.5,27.5,12.3,60.8,28.8c308.8,153,335.8,166.4,334.8,167.3c-0.5,0.5-12.8,7.4-27.4,15.4
		c-14.6,7.9-31.4,17.1-37.5,20.4c-6,3.3-13.9,7.6-17.5,9.5c-3.6,1.9-21.6,11.7-40,21.8c-18.4,10-36.9,20-41,22.3
		c-4.1,2.2-26.6,14.4-50,27.2c-23.4,12.8-46.1,25.1-50.5,27.5s-19.7,10.7-34,18.5c-14.3,7.8-29.6,16.1-34,18.5
		c-15.1,8.1-19.1,10.3-46.2,25.1c-15,8.2-27.5,14.9-27.7,14.9C1019.8,417.2,1019.4,416.8,1019.1,416.3z"/>
	<path class="st0" d="M1105.7,267c-0.7-0.7-1.2-2.8-1.2-4.7c0-1.9-0.9-12.3-2-23.1c-1-10.7-3.3-33.9-5-51.5
		c-1.7-17.6-3.5-35.8-4-40.5c-0.5-4.7-1.2-11.9-1.5-16c-0.3-4.1-1.3-13.5-2.1-20.9s-1.1-13.8-0.7-14.2c0.8-0.8,139,81.1,143.7,85
		c2.7,2.3,8.9-2.1-73.9,52.5c-24.7,16.4-46.1,30.5-47.5,31.5C1107.3,268,1106.9,268.2,1105.7,267z"/>
</g>
<g>
	<path class="st1" d="M107.9,117.4l-2.4,13.7l0.8,0.4c13.3-11.8,27.1-15.7,40.8-15.7c45.5,0,58.1,29,58.1,60.8
		c0,63.6-24.3,137.3-93.4,137.3c-12.9,0-29.8-4.7-37.7-17.7l-0.8,0.4l-18.4,94.2H0l53.4-273.4H107.9z M86.3,235.1
		c0,12.9,3.5,27.9,20.8,27.9c31,0,40.4-47.5,40.4-71.8c0-13.3-4.7-24.3-21.6-24.3C90.2,166.8,86.3,226.5,86.3,235.1z"/>
	<path class="st1" d="M256.6,311.6c-30.2,0-53-20.4-44.7-61.6l43.5-223.6h54.9l-42.4,217c-3.1,17.3,4.7,20.8,15.3,20.8h7.8
		l-9.4,47.5H256.6z"/>
	<path class="st1" d="M429.2,131.5l0.8-0.4l2.7-13.7h54.9L450,311.6h-54.9l3.1-15.3l-1.2-0.4c-9.4,9.4-29,18-42,18
		c-47.5,0-56.5-31-56.5-62.4c0-59.2,22.4-136.1,91.8-136.1C402.1,115.4,419,119.4,429.2,131.5z M377,262.6
		c29.8,0,39.6-46.7,39.6-67.9c0-14.9-2.7-27.5-20.8-27.5c-31.8,0-40.8,47.9-40.8,72.6C355,251.6,360.1,262.6,377,262.6z"/>
	<path class="st1" d="M586.1,311.6l22.4-114.9c3.9-19.6-6.3-29.8-21.6-29.8c-16.1,0-30.2,10.2-34.1,29.8l-22.4,114.9h-54.9
		L513.5,117h54.9l-2.7,14.5h0.8c12.2-9,29.8-16.5,44.3-16.5c38.8,0,63.9,24.3,54.9,69.8L641,311.6H586.1z"/>
	<path class="st1" d="M851.7,169.2c0,51.8-55.3,66.7-102.4,66.7c-5.5,0-11,0-16.1-0.4c-0.4,2.4-0.4,4.3-0.4,6.3
		c0,18,12.9,22,29.4,22c9.8,0,25.5-3.1,45.9-14.9l23.5,41.2c-34.5,22.4-62,23.5-85.9,23.5c-36.9,0-71-15.7-71-71.4
		c0-64.3,27.9-127.1,102.8-127.1C832.9,115,851.7,142.5,851.7,169.2z M741.5,193.9c4.7,0.4,9,0.4,12.9,0.4
		c30.6,0,39.2-9.8,39.2-17.3c0-7.1-4.7-11.8-18.4-11.8C761.1,165.3,747.8,176.6,741.5,193.9z"/>
	<path class="st1" d="M934.5,160.9l-15.7,82c-3.1,16.5,1.2,20,12.6,20h12.2l-9.4,48.6h-29.8c-31,0-50.2-19.2-43.5-52.2l18.8-98.5
		h-20.8l8.6-43.9h20.8l10.6-53.4h54.9L943.1,117h28.2l-8.6,43.9H934.5z"/>
</g>
</svg>
